<?xml version="1.0" encoding="UTF-8" standalone="no"?>
<!DOCTYPE svg PUBLIC "-//W3C//DTD SVG 1.1//EN" "http://www.w3.org/Graphics/SVG/1.1/DTD/svg11.dtd">
<svg width="100%" height="100%" viewBox="0 0 1182 1182" version="1.1" xmlns="http://www.w3.org/2000/svg" xmlns:xlink="http://www.w3.org/1999/xlink" xml:space="preserve" xmlns:serif="http://www.serif.com/" style="fill-rule:evenodd;clip-rule:evenodd;stroke-linejoin:round;stroke-miterlimit:2;">
    <g id="Ebene-1" serif:id="Ebene 1" transform="matrix(4.16667,0,0,4.16667,0,0)">
        <g transform="matrix(0,-1,-1,0,141.122,2.3467)">
            <path d="M-138.674,-138.674C-215.261,-138.674 -277.347,-76.588 -277.347,-0.001C-277.347,76.586 -215.261,138.674 -138.674,138.674C-62.087,138.674 -0.001,76.586 -0.001,-0.001C-0.001,-76.588 -62.087,-138.674 -138.674,-138.674" style="fill:rgb(190,32,49);fill-rule:nonzero;"/>
        </g>
        <g transform="matrix(0,-1,-1,0,141.123,13.3522)">
            <path d="M-127.668,-127.668C-198.177,-127.668 -255.336,-70.509 -255.336,-0C-255.336,70.509 -198.177,127.668 -127.668,127.668C-57.159,127.668 -0,70.509 -0,-0C-0,-70.509 -57.159,-127.668 -127.668,-127.668" style="fill:white;fill-rule:nonzero;"/>
        </g>
        <g transform="matrix(1,0,0,1,141.469,102.65)">
            <path d="M0,139.118L-3.919,139.118L-66.073,0L-28.896,0L2.033,72.319L35.869,0L65.639,0L0,139.118Z" style="fill:rgb(52,56,58);fill-rule:nonzero;"/>
        </g>
        <g transform="matrix(1,0,0,1,141.209,53.5492)">
            <path d="M0,139.117L-3.919,139.117L-66.073,0L-28.896,0L2.033,72.318L35.869,0L65.639,0L0,139.117Z" style="fill:rgb(190,32,49);fill-rule:nonzero;"/>
        </g>
    </g>
</svg>
